# xmcd CD database file
#
# Track frame offsets:
#	200
#	55325
#	94100
#	131150
#	168800
#	225800
#
# Disc length: 3391 seconds
#
# Revision: 0
# Processed by: cddbd v1.5.1PL2 Copyright (c) Steve Scherf et al.
# Submitted via: CDex 1.51
#
DISCID=400d3d06
DTITLE=Adam Pieroñczyk - Water Conversations
DYEAR=1995
DGENRE=Jazz
TTITLE0=Touching in the darkness
TTITLE1=Boxing match I
TTITLE2=Water
TTITLE3=Temathe
TTITLE4=Not yet
TTITLE5=Boxing match II
EXTD=YEAR: 1995
EXTT0=
EXTT1=
EXTT2=
EXTT3=
EXTT4=
EXTT5=
PLAYORDER=
